<?xml version="1.0" encoding="utf-8"?>
<!-- Generator: Adobe Illustrator 22.0.0, SVG Export Plug-In . SVG Version: 6.00 Build 0)  -->
<svg version="1.1" id="Layer_1" xmlns="http://www.w3.org/2000/svg" xmlns:xlink="http://www.w3.org/1999/xlink" x="0px" y="0px"
	 viewBox="0 0 1070.3 160.8" style="enable-background:new 0 0 1070.3 160.8;" xml:space="preserve">
<g>
	<g>
		<path d="M296.3,110.1c0,18.6-14.4,29.1-35.9,29.1h-31.5h-14.2V28.3H235h25.2c21.8,0,34.9,12.3,34.9,30.2c0,13-6.8,21.4-15.2,25.5
			C288.7,88.1,296.3,96.5,296.3,110.1z M235,45.8v30.3h23.2c11.2,0,16.4-7.3,16.4-15c-0.2-7.6-5.2-15.3-16.4-15.3H235z M276,106.8
			c0-9.2-6.8-15.2-16.4-15.2H235v30h24.6C269.6,121.6,276,115.7,276,106.8z"/>
		<path d="M346.6,61.9c23.6,0,39.3,16.4,39.3,39.6c0,23.3-15.6,39.6-39.3,39.6s-39.4-16.2-39.4-39.6
			C307.2,78.3,322.9,61.9,346.6,61.9z M346.6,123.3c11.7,0,19.4-8.9,19.4-21.8c0-12.9-7.7-21.8-19.4-21.8
			c-11.8,0-19.4,8.9-19.4,21.8C327.2,114.3,334.8,123.3,346.6,123.3z"/>
		<path d="M448,64v18.2c-17.9-4.2-28.5,4.4-28.5,21.4v35.6h-20v-75h18.3l1.1,8.6C423.3,63.7,436.8,61.5,448,64z"/>
		<path d="M459.5,38.4c0-6.7,5.3-11.8,12-11.8c6.7,0,12,5.2,12,11.8c0,6.8-5.3,12-12,12C464.8,50.4,459.5,45.2,459.5,38.4z
			 M481.5,64v75.2h-19.9V64H481.5z"/>
		<path d="M526.2,125.4c6.1,0,10.8-2.3,10.8-7.6c0-3.9-2.6-6.1-7.3-7.3l-10-2.7c-16.2-4.2-21.8-12.3-21.8-22.1
			c0-13.5,10.3-23.9,28.5-23.9c14.9,0,26.5,7.1,28.8,19.9l-17.7,4.1c-0.6-5.2-4.9-8-10.5-8c-5.8,0-9.7,2.9-9.7,7.7
			c0,3.6,2.4,5.9,8.5,7.6l9.9,2.6c13.8,3.6,21.2,11.2,21.2,22.3c0,13.8-10.9,23.3-30.3,23.3c-18.8,0-28.9-9.1-30.8-21.4l18.2-3
			C514.2,122.1,518.9,125.4,526.2,125.4z"/>
		<path d="M614.5,28.1h20.8v45.6l46.4,0.2V28.1h20.9v111.1h-20.9V92.4l-46.4-0.3v47.1h-20.8V28.1z"/>
		<path d="M771.7,64v18.2c-17.9-4.2-28.5,4.4-28.5,21.4v35.6h-20v-75h18.3l1.1,8.6C747,63.7,760.5,61.5,771.7,64z"/>
		<path d="M856,93v46.2h-19.7v-42c0-15.5-10-17.4-15.2-17.4c-7,0-17.3,3.5-17.3,17.9v41.5h-19.7V64h18.6l0.6,7.4
			c4.2-5.8,12.6-9.7,22-9.7C844.9,61.8,856,73.3,856,93z"/>
		<path d="M907.7,61.8c17.7,0,30.9,9.7,35,23.5l-17,6.8c-2.4-7.6-9.4-12.4-17.7-12.4c-12,0-19.2,8.8-19.2,22
			c0,13.6,7.7,21.7,19.2,21.7c8.5,0,15.5-4.7,18-12l16.7,6.2c-4.9,14.5-18.6,23.6-35.2,23.6c-23.2,0-38.6-15.8-38.6-39.6
			C868.9,77.7,884.3,61.8,907.7,61.8z"/>
		<path d="M955.7,38.4c0-6.7,5.3-11.8,12-11.8s12,5.2,12,11.8c0,6.8-5.3,12-12,12S955.7,45.2,955.7,38.4z M977.7,64v75.2h-19.9V64
			H977.7z"/>
		<path d="M1030.1,61.8c17.7,0,30.9,9.7,35,23.5l-17,6.8c-2.4-7.6-9.4-12.4-17.7-12.4c-12,0-19.2,8.8-19.2,22
			c0,13.6,7.7,21.7,19.2,21.7c8.5,0,15.5-4.7,18-12l16.7,6.2c-4.9,14.5-18.6,23.6-35.2,23.6c-23.2,0-38.6-15.8-38.6-39.6
			C991.3,77.7,1006.8,61.8,1030.1,61.8z"/>
	</g>
	<g>
		<path d="M81,3.2c14.4,0,27.6,3.5,39.6,10.6c11.7,6.7,20.9,15.9,27.6,27.8s10.1,24.9,10.1,39c0,14.8-3.7,28.3-11.2,40.6
			c-6.9,11.4-16.2,20.4-28.1,27c-11.9,6.6-24.7,9.8-38.4,9.8c-13.7,0-26.5-3.4-38.2-10.3S21.3,131.7,14.2,120
			C7.1,107.9,3.6,94.9,3.6,81C3.6,67,7,54.1,13.7,42.3C20.5,30.4,29.6,21,41.1,14.2C53.1,6.9,66.5,3.2,81,3.2z M81,144
			c10.8,0,21.1-2.7,30.9-8.1c9.8-5.4,17.6-12.7,23.4-21.9c6-10,9.1-21.1,9.1-33.4c0-11.7-2.8-22.3-8.4-32S122.7,31.3,113,25.7
			s-20.4-8.4-32.2-8.4s-22.6,3-32.6,9.1c-9.4,5.8-16.8,13.6-22.3,23.3c-5.5,9.7-8.3,20.1-8.3,31.2s2.9,21.5,8.6,31.2
			c5.7,9.7,13.4,17.4,23.1,23.3C59,141.1,69.6,144,81,144z M80.4,67.9c-4.2-7.5-11-11.2-20.6-11.2c-5.8,0-10.8,1.8-15,5.3
			C39.6,66.1,37,72.3,37,80.7c0,9.2,3,15.8,9.1,20c4,2.7,8.6,4.1,14,4.1c5.4,0,10.1-1.6,14-4.7c2.7-2.1,4.8-4.6,6.2-7.5L71,87.8
			c-1.9,4.4-5.1,6.6-9.7,6.6c-3.5,0-6.1-1.3-7.8-3.9s-2.5-5.9-2.5-9.8c0-9.2,3.4-13.7,10.3-13.7c1.2,0,2.4,0.3,3.4,0.9
			c2.3,1,4.1,2.8,5.3,5.3L80.4,67.9z M125,67.9c-4.2-7.5-11-11.2-20.6-11.2c-5.6,0-10.5,1.8-14.7,5.3C84.6,66.1,82,72.3,82,80.7
			c0,9.2,2.9,15.8,8.7,20c4,2.7,8.7,4.1,14.4,4.1s10.6-1.9,15-5.6c2.1-1.9,3.9-4.1,5.3-6.6l-9.7-4.7c-1.9,4.4-5.1,6.6-9.7,6.6
			c-3.5,0-6.1-1.3-7.8-3.9s-2.5-5.9-2.5-9.8c0-9.2,3.4-13.7,10.3-13.7c1.2,0,2.4,0.3,3.4,0.9c2.3,1,4.1,2.8,5.3,5.3L125,67.9z"/>
	</g>
</g>
</svg>
