<?xml version="1.0" encoding="utf-8"?>
<!-- Generator: Adobe Illustrator 22.0.0, SVG Export Plug-In . SVG Version: 6.00 Build 0)  -->
<svg version="1.1" id="Artwork_1_" xmlns="http://www.w3.org/2000/svg" xmlns:xlink="http://www.w3.org/1999/xlink" x="0px" y="0px"
	 viewBox="0 0 6951.4 1985" style="enable-background:new 0 0 6951.4 1985;" xml:space="preserve">
<style type="text/css">
	.st0{fill:#02BC9D;}
	.st1{fill:#12123A;}
</style>
<g id="Ideogram">
	<g>
		<g>
			<path class="st0" d="M1867.8,697.5c-10-3.7-20-7.7-29.9-11.7c-244.1-100.2-439.2-295.3-539.4-539.4c-3.9-9.5-7.7-19.1-11.3-28.8
				h-0.1c-33.5-66.2-153-115.2-295.3-115.2S730,51.3,696.5,117.5h-0.2c-3.6,9.7-7.4,19.3-11.3,28.8
				c73.2,197.6,177.4,380.1,306.8,541.6c8.4,10.5,17,21,25.6,31.3c8.6,10.3,17.4,20.6,26.2,30.8l0.1,0.1
				c5.2,5.9,10.4,11.8,15.6,17.7c15.7,17.6,31.7,34.9,48,51.9l0,0c40.5,42.2,82.8,82.5,126.8,120.9l0,0c20.3,17.7,41.1,35,62.1,51.9
				c-69.4,55.6-135,115.9-196.1,180.3c-22.5,18.8-48.7,35.4-56.5,29.7l13.8,16.7l12.3,15.3c118.4,147.7,215.1,310,288.3,483.2
				c108.9-187.3,277.5-335.5,479.8-418.5c9.9-4.1,19.8-8,29.9-11.7c65.9-33.8,114.7-153.1,114.7-295
				C1982.5,850.6,1933.7,731.3,1867.8,697.5z"/>
			<path class="st0" d="M966.1,1265.8c-8.6-10.3-17.4-20.6-26.2-30.8l-0.1-0.1c-5.2-5.9-10.4-11.8-15.6-17.7
				c-15.7-17.6-31.7-34.9-48-51.9l0,0c-40.5-42.2-82.8-82.5-126.8-120.9l0,0c-20.3-17.7-41.1-35-62.1-51.9
				c68.7-55,133.5-114.6,194.1-178.2c22.4-19.2,48.8-36.2,56.9-30.3L926,765.8l-12.3-15.3c-118.4-147.7-215.1-310-288.3-483.2
				C516.5,454.5,347.9,602.7,145.6,685.8c-9.9,4.1-19.8,8-29.9,11.7C49.8,731.3,1.1,850.6,1.1,992.5s48.7,261.2,114.7,295
				c10,3.7,20,7.7,29.9,11.7c244.1,100.2,439.2,295.3,539.4,539.4c3.9,9.5,7.7,19.1,11.3,28.8h0.1c33.5,66.2,153,115.2,295.3,115.2
				s261.8-49,295.3-115.2h0.2c3.6-9.7,7.4-19.3,11.3-28.8c-73.2-197.6-177.4-380.1-306.8-541.6
				C983.3,1286.5,974.8,1276.1,966.1,1265.8z"/>
		</g>
		<g>
			<g>
				<path class="st1" d="M2951.4,835.4c0,155.3-99.5,264.6-267.9,264.6H2514v273.4h-149.8V571.9H2514h170.6
					C2850.8,571.9,2951.4,673.6,2951.4,835.4z M2793.9,832.1c0-65.6-40.5-127.9-136.7-127.9H2514v265.7h142.1
					C2753.5,969.9,2793.9,905.4,2793.9,832.1z"/>
				<path class="st1" d="M3261.6,815.7c170.6,0,283.2,118.1,283.2,285.4c0,168.4-112.6,285.4-283.2,285.4
					c-170.6,0-284.3-117-284.3-285.4C2977.3,933.8,3091,815.7,3261.6,815.7z M3261.6,1258.6c84.2,0,140-64.5,140-157.5
					c0-92.9-55.8-157.5-140-157.5c-85.3,0-140,64.5-140,157.5C3121.6,1194.1,3176.3,1258.6,3261.6,1258.6z"/>
				<path class="st1" d="M3628.9,556.6h143.2v816.8h-143.2V556.6z"/>
				<path class="st1" d="M4415.6,831l-260.2,670.3c-66.7,172.8-206.7,152-310.5,113.7l38.3-129c59,36.1,129,39.4,155.3-35l17.5-45.9
					L3824,831h150.9l147.6,391.5L4266.9,831H4415.6z"/>
				<path class="st1" d="M5090.7,1191.9h-289.8l-63.4,181.5h-155.3l288.7-801.5h146.5h4.4l288.7,801.5h-158.5L5090.7,1191.9z
					 M5047,1067.2l-100.6-293l-101.7,293H5047z"/>
				<path class="st1" d="M5641.7,949.1h-103.9v424.3h-140V949.1h-105V831h105V662.6h140V831h103.9V949.1z"/>
				<path class="st1" d="M5699.6,556.6h143.2v816.8h-143.2V556.6z"/>
				<path class="st1" d="M6287.5,1373.4c-2.2-10.9-5.5-31.7-7.7-55.8c-27.3,38.3-83.1,70-160.7,70c-113.7,0-196.8-64.5-196.8-176
					c0-109.3,77.6-170.6,196.8-170.6h157.5v-18.6c0-66.7-44.8-92.9-107.2-92.9c-63.4,0-103.9,27.3-129,76.5l-103.9-59
					c51.4-96.2,140-132.3,241.7-132.3c122.5,0,237.3,53.6,237.3,228.5v207.8c0,53.6,4.4,105,9.8,122.5H6287.5z M6277.7,1138.3
					h-124.6c-56.9,0-86.4,28.4-86.4,71.1c0,45.9,32.8,71.1,90.8,71.1c51.4,0,120.3-26.2,120.3-131.2V1138.3z"/>
				<path class="st1" d="M6705.9,1273.9c43.7,0,77.6-16.4,77.6-54.7c0-28.4-18.6-43.7-52.5-52.5l-72.2-19.7
					c-117-30.6-157.5-88.6-157.5-159.6c0-97.3,74.4-172.8,205.6-172.8c107.2,0,191.4,51.4,207.8,143.2l-127.9,29.5
					c-4.4-37.2-35-58-75.5-58c-41.5,0-70,20.8-70,55.8c0,26.2,17.5,42.6,61.2,54.7l71.1,18.6c99.5,26.2,153.1,80.9,153.1,160.7
					c0,99.5-78.7,168.4-218.7,168.4c-135.6,0-208.9-65.6-222-154.2l131.2-21.9C6619.5,1249.8,6653.4,1273.9,6705.9,1273.9z"/>
			</g>
		</g>
	</g>
</g>
</svg>
