<?xml version="1.0" encoding="utf-8"?>
<!-- Generator: Adobe Illustrator 22.0.0, SVG Export Plug-In . SVG Version: 6.00 Build 0)  -->
<svg version="1.1" id="Artwork_1_" xmlns="http://www.w3.org/2000/svg" xmlns:xlink="http://www.w3.org/1999/xlink" x="0px" y="0px"
	 viewBox="0 0 4599.4 1100.2" style="enable-background:new 0 0 4599.4 1100.2;" xml:space="preserve">
<style type="text/css">
	.st0{fill:#FFFFFF;}
</style>
<g id="Ideogram">
	<g>
		<g>
			<g>
				<path class="st0" d="M605.7,286.5c0,155.3-99.5,264.6-267.9,264.6H168.3v273.4H18.5V23h149.8h170.6
					C505.1,23,605.7,124.7,605.7,286.5z M448.2,283.2c0-65.6-40.5-127.9-136.7-127.9H168.3V421h142.1
					C407.8,421,448.2,356.5,448.2,283.2z"/>
				<path class="st0" d="M915.9,266.8c170.6,0,283.2,118.1,283.2,285.4c0,168.4-112.6,285.4-283.2,285.4
					c-170.6,0-284.3-117-284.3-285.4C631.6,384.9,745.3,266.8,915.9,266.8z M915.9,709.7c84.2,0,140-64.5,140-157.5
					c0-92.9-55.8-157.5-140-157.5c-85.3,0-140,64.5-140,157.5S830.6,709.7,915.9,709.7z"/>
				<path class="st0" d="M1283.2,7.7h143.2v816.8h-143.2V7.7z"/>
				<path class="st0" d="M2069.9,282.1l-260.2,670.3c-66.7,172.8-206.7,152-310.5,113.7l38.3-129c59,36.1,129,39.4,155.3-35
					l17.5-45.9l-232-574.1h150.9l147.6,391.5l144.4-391.5H2069.9z"/>
				<path class="st0" d="M2745,643h-289.8l-63.4,181.5h-155.3L2525.2,23h146.5h4.4l288.7,801.5h-158.5L2745,643z M2701.3,518.3
					l-100.6-293l-101.7,293H2701.3z"/>
				<path class="st0" d="M3296,400.2h-103.9v424.3h-140V400.2h-105V282.1h105V113.7h140v168.4H3296V400.2z"/>
				<path class="st0" d="M3353.9,7.7h143.2v816.8h-143.2V7.7z"/>
				<path class="st0" d="M3941.8,824.5c-2.2-10.9-5.5-31.7-7.7-55.8c-27.3,38.3-83.1,70-160.7,70c-113.7,0-196.8-64.5-196.8-176
					c0-109.3,77.6-170.6,196.8-170.6h157.5v-18.6c0-66.7-44.8-92.9-107.2-92.9c-63.4,0-103.9,27.3-129,76.5l-103.9-59
					c51.4-96.2,140-132.3,241.7-132.3c122.5,0,237.3,53.6,237.3,228.5v207.8c0,53.6,4.4,105,9.8,122.5L3941.8,824.5L3941.8,824.5z
					 M3932,589.4h-124.6c-56.9,0-86.4,28.4-86.4,71.1c0,45.9,32.8,71.1,90.8,71.1c51.4,0,120.3-26.2,120.3-131.2L3932,589.4
					L3932,589.4z"/>
				<path class="st0" d="M4360.2,725c43.7,0,77.6-16.4,77.6-54.7c0-28.4-18.6-43.7-52.5-52.5l-72.2-19.7
					c-117-30.6-157.5-88.6-157.5-159.6c0-97.3,74.4-172.8,205.6-172.8c107.2,0,191.4,51.4,207.8,143.2l-127.9,29.5
					c-4.4-37.2-35-58-75.5-58c-41.5,0-70,20.8-70,55.8c0,26.2,17.5,42.6,61.2,54.7l71.1,18.6c99.5,26.2,153.1,80.9,153.1,160.7
					c0,99.5-78.7,168.4-218.7,168.4c-135.6,0-208.9-65.6-222-154.2l131.2-21.9C4273.8,700.9,4307.7,725,4360.2,725z"/>
			</g>
		</g>
	</g>
</g>
</svg>
