<?xml version="1.0" standalone="no"?>
<!DOCTYPE svg PUBLIC "-//W3C//DTD SVG 20010904//EN"
 "http://www.w3.org/TR/2001/REC-SVG-20010904/DTD/svg10.dtd">
<svg version="1.0" xmlns="http://www.w3.org/2000/svg"
 width="700.000000pt" height="700.000000pt" viewBox="0 0 700.000000 700.000000"
 preserveAspectRatio="xMidYMid meet">
<metadata>
Created by potrace 1.11, written by Peter Selinger 2001-2013
</metadata>
<g transform="translate(0.000000,700.000000) scale(0.100000,-0.100000)"
fill="#000000" stroke="none">
<path d="M3348 6925 c-2 -2 -30 -6 -63 -10 -97 -10 -125 -15 -215 -36 -91 -21
-185 -50 -238 -75 -19 -9 -50 -23 -70 -33 -52 -24 -141 -83 -183 -123 -52 -48
-84 -95 -109 -158 -23 -60 -21 -83 20 -175 10 -22 23 -56 31 -75 50 -136 227
-510 321 -679 32 -58 58 -106 58 -108 0 -10 165 -276 258 -416 168 -255 427
-591 606 -787 113 -124 478 -482 582 -570 61 -52 137 -117 168 -144 l57 -48
-43 -38 c-24 -21 -77 -66 -118 -100 -208 -173 -660 -619 -660 -651 0 -5 40
-59 88 -121 371 -476 695 -1020 913 -1528 15 -35 32 -66 37 -68 5 -1 22 19 37
45 59 101 216 325 280 400 6 6 32 38 60 70 83 97 294 305 390 384 288 237 604
425 944 560 113 46 171 95 246 209 93 143 167 362 190 560 3 30 8 69 12 85 7
36 6 370 -2 405 -3 14 -8 50 -11 80 -3 30 -7 63 -10 72 -3 10 -7 30 -10 45
-35 197 -136 413 -251 534 -54 57 -76 69 -268 150 -109 46 -309 149 -419 216
-86 52 -292 193 -339 233 -516 429 -820 832 -1066 1413 -27 65 -66 138 -86
163 -86 104 -314 225 -507 269 -173 38 -256 48 -450 50 -98 1 -179 1 -180 0z"/>
<path d="M2211 5977 c-16 -40 -186 -287 -277 -402 -110 -137 -376 -405 -509
-511 -264 -210 -548 -380 -835 -498 -154 -63 -156 -64 -212 -115 -159 -143
-276 -447 -304 -791 -8 -91 -7 -330 1 -369 2 -13 7 -49 10 -80 17 -159 96
-407 168 -526 59 -98 150 -193 211 -219 17 -7 87 -37 156 -67 414 -176 766
-417 1093 -749 167 -170 283 -312 411 -505 134 -200 240 -399 322 -603 60
-149 97 -197 214 -278 97 -67 347 -167 415 -165 2 0 19 -5 37 -10 18 -5 49
-12 68 -15 19 -2 64 -8 100 -13 71 -10 414 -8 495 3 28 4 82 14 120 22 39 8
81 17 93 20 50 10 206 65 255 90 118 60 203 126 255 198 37 49 72 126 72 156
0 17 -97 259 -163 405 -276 617 -633 1175 -1092 1705 -89 104 -420 441 -525
536 -30 27 -91 81 -135 119 -44 38 -82 71 -85 74 -3 4 -22 20 -44 36 -89 68
-92 51 30 155 218 185 253 217 482 447 218 220 250 260 222 278 -5 3 -38 43
-72 88 -34 45 -65 84 -68 87 -11 10 -164 224 -238 333 -61 92 -201 315 -245
392 -95 167 -142 255 -207 385 -73 145 -93 189 -165 348 -16 34 -32 62 -37 62
-5 0 -12 -10 -17 -23z"/>
</g>
</svg>
